<?xml version="1.0" encoding="UTF-8" standalone="no"?>
<svg
   xmlns:dc="http://purl.org/dc/elements/1.1/"
   xmlns:cc="http://creativecommons.org/ns#"
   xmlns:rdf="http://www.w3.org/1999/02/22-rdf-syntax-ns#"
   xmlns:svg="http://www.w3.org/2000/svg"
   xmlns="http://www.w3.org/2000/svg"
   xmlns:sodipodi="http://sodipodi.sourceforge.net/DTD/sodipodi-0.dtd"
   xmlns:inkscape="http://www.inkscape.org/namespaces/inkscape"
   id="svg8"
   version="1.1"
   viewBox="0 0 10.583333 10.583334"
   height="40"
   width="40"
   sodipodi:docname="1-2x.svg"
   inkscape:version="0.92.4 (fd57863, 2020-04-02)">
  <sodipodi:namedview
     pagecolor="#ffffff"
     bordercolor="#666666"
     borderopacity="1"
     objecttolerance="10"
     gridtolerance="10"
     guidetolerance="10"
     inkscape:pageopacity="0"
     inkscape:pageshadow="2"
     inkscape:window-width="1866"
     inkscape:window-height="1016"
     id="namedview30"
     showgrid="false"
     inkscape:zoom="16"
     inkscape:cx="9.986861"
     inkscape:cy="20.51265"
     inkscape:window-x="54"
     inkscape:window-y="27"
     inkscape:window-maximized="1"
     inkscape:current-layer="svg8" />
  <defs
     id="defs2" />
  <metadata
     id="metadata5">
    <rdf:RDF>
      <cc:Work
         rdf:about="">
        <dc:format>image/svg+xml</dc:format>
        <dc:type
           rdf:resource="http://purl.org/dc/dcmitype/StillImage" />
        <dc:title />
      </cc:Work>
    </rdf:RDF>
  </metadata>
  <g
     id="g924">
    <path
       sodipodi:nodetypes="cccccccccccccc"
       inkscape:connector-curvature="0"
       id="path988"
       d="M 7.0548666,3.6865968 6.9613324,3.7811647 6.567041,4.1795899 7.6620647,5.2746136 6.5324179,6.4042604 7.0197267,6.8972535 8.1540244,5.7660565 9.2785036,6.8905357 9.7658124,6.3980593 8.6423666,5.2777143 9.7348066,4.1852743 9.242847,3.6933146 8.1504072,4.7857546 Z"
       style="color:#000000;font-style:normal;font-variant:normal;font-weight:normal;font-stretch:normal;font-size:6.3499999px;line-height:1.25;font-family:Lato;-inkscape-font-specification:Lato;font-variant-ligatures:normal;font-variant-position:normal;font-variant-caps:normal;font-variant-numeric:normal;font-variant-alternates:normal;font-feature-settings:normal;text-indent:0;text-align:center;text-decoration:none;text-decoration-line:none;text-decoration-style:solid;text-decoration-color:#000000;letter-spacing:0px;word-spacing:0px;text-transform:none;writing-mode:lr-tb;direction:ltr;text-orientation:mixed;dominant-baseline:auto;baseline-shift:baseline;text-anchor:middle;white-space:normal;shape-padding:0;clip-rule:nonzero;display:inline;overflow:visible;visibility:visible;opacity:1;isolation:auto;mix-blend-mode:normal;color-interpolation:sRGB;color-interpolation-filters:linearRGB;solid-color:#000000;solid-opacity:1;vector-effect:none;fill:#000000;fill-opacity:1;fill-rule:nonzero;stroke:none;stroke-width:0.26458332;stroke-linecap:butt;stroke-linejoin:miter;stroke-miterlimit:4;stroke-dasharray:none;stroke-dashoffset:0;stroke-opacity:1;color-rendering:auto;image-rendering:auto;shape-rendering:auto;text-rendering:auto;enable-background:accumulate" />
    <g
       transform="translate(-0.16128503,-286.55538)"
       id="text817-29"
       style="font-style:normal;font-weight:normal;font-size:6.3499999px;line-height:1.25;font-family:sans-serif;text-align:center;letter-spacing:0px;word-spacing:0px;text-anchor:middle;fill:#000000;fill-opacity:1;stroke:#000000;stroke-width:0.26458332;stroke-opacity:1"
       aria-label="1">
      <path
         sodipodi:nodetypes="ccccccsccccccccccccccc"
         inkscape:connector-curvature="0"
         id="path991"
         d="m 3.3359375,287.11719 -1.1816406,1.02343 0.2070312,0.28321 c 0.023676,0.0355 0.055149,0.061 0.087891,0.0801 l 0.00391,0.002 0.00391,0.002 c 0.039468,0.0197 0.082687,0.0293 0.125,0.0293 0.028706,0 0.05555,-0.004 0.082031,-0.0117 l 0.00781,-0.002 0.00586,-0.002 c 0.030803,-0.0122 0.059041,-0.0308 0.083984,-0.0508 h 0.00195 l 0.40625,-0.34765 v 2.20507 H 2.4101562 v 0.13086 0.46875 h 2.1621094 v -0.59961 H 3.875 v -3.21093 z"
         style="color:#000000;font-style:normal;font-variant:normal;font-weight:normal;font-stretch:normal;font-size:4.93888903px;line-height:1.25;font-family:Lato;-inkscape-font-specification:Lato;font-variant-ligatures:normal;font-variant-position:normal;font-variant-caps:normal;font-variant-numeric:normal;font-variant-alternates:normal;font-feature-settings:normal;text-indent:0;text-align:start;text-decoration:none;text-decoration-line:none;text-decoration-style:solid;text-decoration-color:#000000;letter-spacing:0px;word-spacing:0px;text-transform:none;writing-mode:lr-tb;direction:ltr;text-orientation:mixed;dominant-baseline:auto;baseline-shift:baseline;text-anchor:start;white-space:normal;shape-padding:0;clip-rule:nonzero;display:inline;overflow:visible;visibility:visible;opacity:1;isolation:auto;mix-blend-mode:normal;color-interpolation:sRGB;color-interpolation-filters:linearRGB;solid-color:#000000;solid-opacity:1;vector-effect:none;fill:#000000;fill-opacity:1;fill-rule:nonzero;stroke:none;stroke-width:0.26458332;stroke-linecap:butt;stroke-linejoin:miter;stroke-miterlimit:4;stroke-dasharray:none;stroke-dashoffset:0;stroke-opacity:1;color-rendering:auto;image-rendering:auto;shape-rendering:auto;text-rendering:auto;enable-background:accumulate" />
    </g>
    <path
       sodipodi:nodetypes="cccccccccsccccccccsccccccscccccccccsccsccsccccccscccc"
       inkscape:connector-curvature="0"
       id="path994"
       d="m 3.2714844,6.1796875 c -0.1644057,0 -0.3205312,0.022882 -0.4667969,0.072266 C 2.6599949,6.2995768 2.5289038,6.3723319 2.4140625,6.4667969 2.299746,6.5623719 2.2058929,6.6814583 2.1328125,6.8203125 2.0587177,6.9592412 2.0092494,7.1168977 1.984375,7.2910156 l -0.017578,0.1269532 0.3554687,0.060547 c 0.011872,0.00206 0.022332,0.00441 0.03125,0.00586 l 0.011719,0.00195 h 0.037109 c 0.06485,0 0.1339402,-0.018986 0.1875,-0.0625 0.055314,-0.044953 0.085679,-0.1072315 0.1035156,-0.171875 v -0.00391 l 0.00195,-0.00391 c 0.013342,-0.062719 0.033762,-0.1175601 0.064453,-0.1679687 l 0.00195,-0.00195 c 0.03343,-0.051639 0.073654,-0.094493 0.1191406,-0.1308594 0.047083,-0.037931 0.099695,-0.068141 0.1621094,-0.089844 0.060562,-0.021059 0.1272871,-0.03125 0.203125,-0.03125 0.075838,0 0.1442842,0.0099 0.2070312,0.03125 h 0.00195 v 0.00195 c 0.061325,0.019597 0.1126905,0.047383 0.15625,0.085937 0.041611,0.036854 0.075285,0.083415 0.1015625,0.1464844 v 0.00195 c 0.024587,0.057777 0.039063,0.1290362 0.039063,0.21875 0,0.091121 -0.013852,0.1754725 -0.039063,0.2539062 C 3.686925,7.6417953 3.650392,7.720097 3.5995998,7.8007675 l -0.00195,0.00195 C 3.547669,7.8845317 3.4871678,7.9667879 3.4140625,8.0507812 3.3384063,8.1360953 3.2545697,8.2262286 3.1621094,8.3203125 L 2.0292969,9.4570312 c -0.038985,0.039003 -0.069477,0.085791 -0.089844,0.1367188 l -0.00195,0.00195 v 0.00391 c -0.015835,0.045252 -0.025391,0.091152 -0.025391,0.1386718 v 0.2832032 h 2.625 V 9.6230469 c 0,-0.072209 -0.027355,-0.1503784 -0.080078,-0.203125 C 4.4024545,9.3653196 4.3236047,9.3398437 4.25,9.3398438 H 3.0644531 c -0.0082,0 -0.017146,0.00178 -0.025391,0.00195 L 3.693359,8.6718719 3.695309,8.6699219 C 3.7943871,8.5691479 3.8887129,8.469179 3.9765625,8.3730469 4.0697863,8.2711893 4.1530214,8.166852 4.2246094,8.0585938 4.2975398,7.9465331 4.3553247,7.829182 4.3984375,7.7070312 c 0.04493,-0.1273055 0.066406,-0.2652266 0.066406,-0.4101562 0,-0.1702342 -0.028983,-0.3278936 -0.091797,-0.46875 C 4.3115815,6.6902928 4.2252044,6.5713059 4.1152344,6.4746094 4.0075925,6.3767537 3.8792486,6.3014854 3.734375,6.2519531 3.547886,6.1983069 3.4414172,6.1823581 3.2714844,6.1796875 Z"
       style="color:#000000;font-style:normal;font-variant:normal;font-weight:normal;font-stretch:normal;font-size:4.93888903px;line-height:1.25;font-family:Lato;-inkscape-font-specification:Lato;font-variant-ligatures:normal;font-variant-position:normal;font-variant-caps:normal;font-variant-numeric:normal;font-variant-alternates:normal;font-feature-settings:normal;text-indent:0;text-align:center;text-decoration:none;text-decoration-line:none;text-decoration-style:solid;text-decoration-color:#000000;letter-spacing:0px;word-spacing:0px;text-transform:none;writing-mode:lr-tb;direction:ltr;text-orientation:mixed;dominant-baseline:auto;baseline-shift:baseline;text-anchor:middle;white-space:normal;shape-padding:0;clip-rule:nonzero;display:inline;overflow:visible;visibility:visible;opacity:1;isolation:auto;mix-blend-mode:normal;color-interpolation:sRGB;color-interpolation-filters:linearRGB;solid-color:#000000;solid-opacity:1;vector-effect:none;fill:#000000;fill-opacity:1;fill-rule:nonzero;stroke:none;stroke-width:0.26458332;stroke-linecap:butt;stroke-linejoin:miter;stroke-miterlimit:4;stroke-dasharray:none;stroke-dashoffset:0;stroke-opacity:1;color-rendering:auto;image-rendering:auto;shape-rendering:auto;text-rendering:auto;enable-background:accumulate" />
    <path
       sodipodi:nodetypes="ccccc"
       inkscape:connector-curvature="0"
       id="path881"
       d="m 0.8046875,4.8867188 c 0,0.2649739 0,0.5299479 0,0.7949218 H 5.6445312 V 4.8867188 Z"
       style="color:#000000;font-style:normal;font-variant:normal;font-weight:normal;font-stretch:normal;font-size:medium;line-height:normal;font-family:sans-serif;font-variant-ligatures:normal;font-variant-position:normal;font-variant-caps:normal;font-variant-numeric:normal;font-variant-alternates:normal;font-feature-settings:normal;text-indent:0;text-align:start;text-decoration:none;text-decoration-line:none;text-decoration-style:solid;text-decoration-color:#000000;letter-spacing:normal;word-spacing:normal;text-transform:none;writing-mode:lr-tb;direction:ltr;text-orientation:mixed;dominant-baseline:auto;baseline-shift:baseline;text-anchor:start;white-space:normal;shape-padding:0;clip-rule:nonzero;display:inline;overflow:visible;visibility:visible;opacity:1;isolation:auto;mix-blend-mode:normal;color-interpolation:sRGB;color-interpolation-filters:linearRGB;solid-color:#000000;solid-opacity:1;vector-effect:none;fill:#000000;fill-opacity:1;fill-rule:nonzero;stroke:none;stroke-width:0.39740416;stroke-linecap:butt;stroke-linejoin:miter;stroke-miterlimit:4;stroke-dasharray:none;stroke-dashoffset:0;stroke-opacity:1;color-rendering:auto;image-rendering:auto;shape-rendering:auto;text-rendering:auto;enable-background:accumulate" />
  </g>
</svg>
