<?xml version="1.0" encoding="UTF-8" standalone="no"?>
<svg
   xmlns:dc="http://purl.org/dc/elements/1.1/"
   xmlns:cc="http://creativecommons.org/ns#"
   xmlns:rdf="http://www.w3.org/1999/02/22-rdf-syntax-ns#"
   xmlns:svg="http://www.w3.org/2000/svg"
   xmlns="http://www.w3.org/2000/svg"
   xmlns:sodipodi="http://sodipodi.sourceforge.net/DTD/sodipodi-0.dtd"
   xmlns:inkscape="http://www.inkscape.org/namespaces/inkscape"
   id="svg8"
   version="1.1"
   viewBox="0 0 10.583333 10.583334"
   height="40"
   width="40"
   sodipodi:docname="1-3x.svg"
   inkscape:version="0.92.4 (fd57863, 2020-04-02)">
  <sodipodi:namedview
     pagecolor="#ffffff"
     bordercolor="#666666"
     borderopacity="1"
     objecttolerance="10"
     gridtolerance="10"
     guidetolerance="10"
     inkscape:pageopacity="0"
     inkscape:pageshadow="2"
     inkscape:window-width="1866"
     inkscape:window-height="1016"
     id="namedview30"
     showgrid="false"
     inkscape:zoom="16"
     inkscape:cx="3.769261"
     inkscape:cy="18.509076"
     inkscape:window-x="54"
     inkscape:window-y="27"
     inkscape:window-maximized="1"
     inkscape:current-layer="svg8" />
  <defs
     id="defs2" />
  <metadata
     id="metadata5">
    <rdf:RDF>
      <cc:Work
         rdf:about="">
        <dc:format>image/svg+xml</dc:format>
        <dc:type
           rdf:resource="http://purl.org/dc/dcmitype/StillImage" />
        <dc:title />
      </cc:Work>
    </rdf:RDF>
  </metadata>
  <g
     id="g819">
    <path
       sodipodi:nodetypes="cccccccccccccc"
       inkscape:connector-curvature="0"
       id="path997"
       d="M 7.0546875,3.6660156 6.5664062,4.1601562 7.6621094,5.2539062 6.53125,6.3847656 7.0195312,6.8769531 8.1542969,5.7460938 9.2773438,6.8710938 9.765625,6.3789062 8.6425781,5.2578125 9.734375,4.1660156 9.640625,4.0722656 9.2421875,3.6738281 8.1503906,4.765625 Z"
       style="color:#000000;font-style:normal;font-variant:normal;font-weight:normal;font-stretch:normal;font-size:6.3499999px;line-height:1.25;font-family:Lato;-inkscape-font-specification:Lato;font-variant-ligatures:normal;font-variant-position:normal;font-variant-caps:normal;font-variant-numeric:normal;font-variant-alternates:normal;font-feature-settings:normal;text-indent:0;text-align:center;text-decoration:none;text-decoration-line:none;text-decoration-style:solid;text-decoration-color:#000000;letter-spacing:0px;word-spacing:0px;text-transform:none;writing-mode:lr-tb;direction:ltr;text-orientation:mixed;dominant-baseline:auto;baseline-shift:baseline;text-anchor:middle;white-space:normal;shape-padding:0;clip-rule:nonzero;display:inline;overflow:visible;visibility:visible;opacity:1;isolation:auto;mix-blend-mode:normal;color-interpolation:sRGB;color-interpolation-filters:linearRGB;solid-color:#000000;solid-opacity:1;vector-effect:none;fill:#000000;fill-opacity:1;fill-rule:nonzero;stroke:none;stroke-width:0.26458332;stroke-linecap:butt;stroke-linejoin:miter;stroke-miterlimit:4;stroke-dasharray:none;stroke-dashoffset:0;stroke-opacity:1;color-rendering:auto;image-rendering:auto;shape-rendering:auto;text-rendering:auto;enable-background:accumulate" />
    <path
       sodipodi:nodetypes="ccccccccsccccccccccccccc"
       inkscape:connector-curvature="0"
       id="path1000"
       d="M 3.1738281,0.54101562 1.9921875,1.5644531 2.1992188,1.8496094 c 8.368e-4,0.00125 0.00305,7.234e-4 0.00391,0.00195 v 0.00195 c 0.023245,0.03297 0.052762,0.057944 0.083984,0.076172 l 0.00391,0.00195 0.00391,0.00195 c 0.039468,0.019712 0.082686,0.029297 0.125,0.029297 0.028706,0 0.057503,-0.00617 0.083984,-0.013672 h 0.00586 l 0.00586,-0.00391 c 0.030803,-0.012224 0.059041,-0.028828 0.083984,-0.048828 l 0.00195,-0.00195 0.4082031,-0.3496093 v 2.207044 h -0.761727 v 0.1328125 0.46875 H 4.4101562 V 3.7519531 H 3.7128906 V 0.54101562 Z"
       style="color:#000000;font-style:normal;font-variant:normal;font-weight:normal;font-stretch:normal;font-size:4.93888903px;line-height:1.25;font-family:Lato;-inkscape-font-specification:Lato;font-variant-ligatures:normal;font-variant-position:normal;font-variant-caps:normal;font-variant-numeric:normal;font-variant-alternates:normal;font-feature-settings:normal;text-indent:0;text-align:center;text-decoration:none;text-decoration-line:none;text-decoration-style:solid;text-decoration-color:#000000;letter-spacing:0px;word-spacing:0px;text-transform:none;writing-mode:lr-tb;direction:ltr;text-orientation:mixed;dominant-baseline:auto;baseline-shift:baseline;text-anchor:middle;white-space:normal;shape-padding:0;clip-rule:nonzero;display:inline;overflow:visible;visibility:visible;opacity:1;isolation:auto;mix-blend-mode:normal;color-interpolation:sRGB;color-interpolation-filters:linearRGB;solid-color:#000000;solid-opacity:1;vector-effect:none;fill:#000000;fill-opacity:1;fill-rule:nonzero;stroke:none;stroke-width:0.26458332;stroke-linecap:butt;stroke-linejoin:miter;stroke-miterlimit:4;stroke-dasharray:none;stroke-dashoffset:0;stroke-opacity:1;color-rendering:auto;image-rendering:auto;shape-rendering:auto;text-rendering:auto;enable-background:accumulate" />
    <path
       sodipodi:nodetypes="ccccccccccscccccccccccccccscccccccccscccccscccscccccccccccscccccccscccccsccccccscccc"
       inkscape:connector-curvature="0"
       id="path1003"
       d="m 3.3183594,6.1582031 c -0.1644057,0 -0.3205311,0.024836 -0.4667969,0.074219 -0.1446926,0.047624 -0.2757837,0.1184256 -0.390625,0.2128906 v 0.00195 C 2.346621,6.5428406 2.2527679,6.6619271 2.1796875,6.8007812 2.1060639,6.9393268 2.0560305,7.0960705 2.03125,7.2695312 l -0.017578,0.1289063 0.3554687,0.060547 c 0.011872,0.00206 0.022332,0.00441 0.03125,0.00586 h 0.011719 0.037109 c 0.064086,0 0.133034,-0.017884 0.1855468,-0.060547 0.055314,-0.044953 0.083726,-0.1072316 0.1015625,-0.171875 h 0.00195 v -0.00195 C 2.754901,7.1667415 2.778045,7.1094493 2.810544,7.0566443 H 2.8125 C 2.844417,7.0034263 2.882619,6.9599013 2.9277344,6.9238318 v -0.00195 c 0.047083,-0.037931 0.099695,-0.066187 0.1621094,-0.087891 0.060561,-0.021059 0.1272871,-0.033203 0.203125,-0.033203 0.076631,1e-7 0.1458239,0.01126 0.2070312,0.03125 0.061829,0.019721 0.1108497,0.047364 0.1523438,0.083984 0.039985,0.03528 0.073132,0.079295 0.097656,0.1386719 v 0.00195 0.00195 c 0.024259,0.055794 0.039063,0.1250418 0.039063,0.2128906 0,0.077232 -0.013062,0.1429537 -0.037109,0.2011718 v 0.00195 H 3.75 c -0.021125,0.053983 -0.05399,0.099186 -0.1054688,0.140625 -0.050552,0.040697 -0.1204505,0.077888 -0.2148437,0.1054687 h -0.00195 C 3.3384095,7.7474908 3.222823,7.7624158 3.0820343,7.7636688 L 2.951175,7.7656188 V 8.34765 h 0.1328125 c 0.1765089,0 0.3166059,0.016913 0.4160156,0.044922 C 3.6054564,8.4218841 3.6789577,8.460069 3.7246094,8.5 h 0.00195 c 0.050848,0.043411 0.080466,0.089526 0.097656,0.1445312 v 0.00195 c 0.021285,0.063854 0.033203,0.137381 0.033203,0.2207031 0,0.059546 -0.011267,0.1202575 -0.037109,0.1855469 -0.024684,0.062363 -0.061966,0.1192136 -0.1132813,0.171875 -0.047275,0.049847 -0.109162,0.093711 -0.1894531,0.1289062 -0.072532,0.031103 -0.1621312,0.048828 -0.2714843,0.048828 -0.1105438,0 -0.1955019,-0.018057 -0.2578126,-0.044922 v 0.00195 C 2.9174783,9.328209 2.8617894,9.2908639 2.8183594,9.25 2.7714067,9.2058105 2.7364369,9.160808 2.7109375,9.1152344 v -0.00195 c -0.031778,-0.058845 -0.058389,-0.111331 -0.080078,-0.15625 l 0.00195,0.00781 c -0.003,-0.0074 -0.00648,-0.014385 -0.00977,-0.021484 l -0.00391,-0.00977 c -0.0023,-0.00536 -0.00533,-0.010408 -0.00781,-0.015625 -0.023142,-0.052026 -0.066439,-0.099715 -0.119132,-0.1269498 -0.045291,-0.025255 -0.096397,-0.039063 -0.1464844,-0.039063 -0.05345,0 -0.1070113,0.012125 -0.15625,0.033203 l -0.296875,0.125 0.035156,0.1152344 c 0.04332,0.138627 0.097,0.2676228 0.1601562,0.3886719 v 0.00195 c 0.066265,0.1251659 0.1519472,0.2353479 0.2558594,0.328125 0.1063542,0.094973 0.2358495,0.168097 0.3828125,0.2207032 0.1514543,0.052321 0.3268889,0.076172 0.5253906,0.076172 0.1758982,0 0.3419031,-0.02548 0.4980469,-0.078125 h 0.00195 C 3.9091368,9.9086918 4.0497487,9.830201 4.1699219,9.7285156 4.2904355,9.6246879 4.3866821,9.4970909 4.4550781,9.3515625 v -0.00195 C 4.5264485,9.2005292 4.5625,9.0347047 4.5625,8.8554688 4.5625,8.6165858 4.4940896,8.4025867 4.3574219,8.234375 4.2781907,8.1359165 4.135383,8.0941459 4.015625,8.03125 4.029121,8.0238 4.045515,8.019675 4.058594,8.011719 4.146598,7.95817 4.2225611,7.8927153 4.2851564,7.8144533 c 0.064469,-0.0801 0.113923,-0.1725851 0.1464844,-0.2734375 v -0.00195 c 0.034502,-0.1042331 0.050781,-0.2188646 0.050781,-0.3417969 0,-0.1531162 -0.028428,-0.2973015 -0.087891,-0.4277344 C 4.3362836,6.641764 4.2519595,6.53039 4.1464844,6.4394531 4.0418096,6.3480954 3.9164914,6.2781091 3.7753906,6.2304688 3.5891398,6.1778841 3.4955607,6.1599972 3.3183594,6.1582031 Z"
       style="color:#000000;font-style:normal;font-variant:normal;font-weight:normal;font-stretch:normal;font-size:4.93888903px;line-height:1.25;font-family:Lato;-inkscape-font-specification:Lato;font-variant-ligatures:normal;font-variant-position:normal;font-variant-caps:normal;font-variant-numeric:normal;font-variant-alternates:normal;font-feature-settings:normal;text-indent:0;text-align:center;text-decoration:none;text-decoration-line:none;text-decoration-style:solid;text-decoration-color:#000000;letter-spacing:0px;word-spacing:0px;text-transform:none;writing-mode:lr-tb;direction:ltr;text-orientation:mixed;dominant-baseline:auto;baseline-shift:baseline;text-anchor:middle;white-space:normal;shape-padding:0;clip-rule:nonzero;display:inline;overflow:visible;visibility:visible;opacity:1;isolation:auto;mix-blend-mode:normal;color-interpolation:sRGB;color-interpolation-filters:linearRGB;solid-color:#000000;solid-opacity:1;vector-effect:none;fill:#000000;fill-opacity:1;fill-rule:nonzero;stroke:none;stroke-width:0.26458332;stroke-linecap:butt;stroke-linejoin:miter;stroke-miterlimit:4;stroke-dasharray:none;stroke-dashoffset:0;stroke-opacity:1;color-rendering:auto;image-rendering:auto;shape-rendering:auto;text-rendering:auto;enable-background:accumulate" />
    <path
       sodipodi:nodetypes="ccccc"
       inkscape:connector-curvature="0"
       id="path881-4"
       d="m 0.8046875,4.8652344 c 0,0.265625 0,0.53125 0,0.796875 h 4.8398437 v -0.796875 z"
       style="color:#000000;font-style:normal;font-variant:normal;font-weight:normal;font-stretch:normal;font-size:medium;line-height:normal;font-family:sans-serif;font-variant-ligatures:normal;font-variant-position:normal;font-variant-caps:normal;font-variant-numeric:normal;font-variant-alternates:normal;font-feature-settings:normal;text-indent:0;text-align:start;text-decoration:none;text-decoration-line:none;text-decoration-style:solid;text-decoration-color:#000000;letter-spacing:normal;word-spacing:normal;text-transform:none;writing-mode:lr-tb;direction:ltr;text-orientation:mixed;dominant-baseline:auto;baseline-shift:baseline;text-anchor:start;white-space:normal;shape-padding:0;clip-rule:nonzero;display:inline;overflow:visible;visibility:visible;opacity:1;isolation:auto;mix-blend-mode:normal;color-interpolation:sRGB;color-interpolation-filters:linearRGB;solid-color:#000000;solid-opacity:1;vector-effect:none;fill:#000000;fill-opacity:1;fill-rule:nonzero;stroke:none;stroke-width:0.39740416;stroke-linecap:butt;stroke-linejoin:miter;stroke-miterlimit:4;stroke-dasharray:none;stroke-dashoffset:0;stroke-opacity:1;color-rendering:auto;image-rendering:auto;shape-rendering:auto;text-rendering:auto;enable-background:accumulate" />
  </g>
</svg>
