<?xml version="1.0" encoding="UTF-8" standalone="no"?>
<svg
   xmlns:dc="http://purl.org/dc/elements/1.1/"
   xmlns:cc="http://creativecommons.org/ns#"
   xmlns:rdf="http://www.w3.org/1999/02/22-rdf-syntax-ns#"
   xmlns:svg="http://www.w3.org/2000/svg"
   xmlns="http://www.w3.org/2000/svg"
   xmlns:sodipodi="http://sodipodi.sourceforge.net/DTD/sodipodi-0.dtd"
   xmlns:inkscape="http://www.inkscape.org/namespaces/inkscape"
   id="svg8"
   version="1.1"
   viewBox="0 0 10.583333 10.583334"
   height="40"
   width="40"
   sodipodi:docname="x2.svg"
   inkscape:version="0.92.4 (fd57863, 2020-04-02)">
  <sodipodi:namedview
     pagecolor="#ffffff"
     bordercolor="#666666"
     borderopacity="1"
     objecttolerance="10"
     gridtolerance="10"
     guidetolerance="10"
     inkscape:pageopacity="0"
     inkscape:pageshadow="2"
     inkscape:window-width="1866"
     inkscape:window-height="1016"
     id="namedview30"
     showgrid="false"
     inkscape:zoom="11.8"
     inkscape:cx="0.97296174"
     inkscape:cy="9.1109243"
     inkscape:window-x="54"
     inkscape:window-y="27"
     inkscape:window-maximized="1"
     inkscape:current-layer="svg8" />
  <defs
     id="defs2" />
  <metadata
     id="metadata5">
    <rdf:RDF>
      <cc:Work
         rdf:about="">
        <dc:format>image/svg+xml</dc:format>
        <dc:type
           rdf:resource="http://purl.org/dc/dcmitype/StillImage" />
        <dc:title />
      </cc:Work>
    </rdf:RDF>
  </metadata>
  <g
     id="g883">
    <path
       sodipodi:nodetypes="cccccccccccccc"
       inkscape:connector-curvature="0"
       id="path983"
       d="M 1.9296875,4.3847656 1.4414062,4.8769531 2.5371094,5.9726562 1.40625,7.1015625 1.8945312,7.5957031 3.0273438,6.4648438 l 1.125,1.125 L 4.640625,7.0957031 3.5175781,5.9765625 4.609375,4.8828125 4.515625,4.7910156 4.1171875,4.3925781 3.0253906,5.484375 Z"
       style="color:#000000;font-style:normal;font-variant:normal;font-weight:normal;font-stretch:normal;font-size:6.3499999px;line-height:1.25;font-family:Lato;-inkscape-font-specification:Lato;font-variant-ligatures:normal;font-variant-position:normal;font-variant-caps:normal;font-variant-numeric:normal;font-variant-alternates:normal;font-feature-settings:normal;text-indent:0;text-align:center;text-decoration:none;text-decoration-line:none;text-decoration-style:solid;text-decoration-color:#000000;letter-spacing:0px;word-spacing:0px;text-transform:none;writing-mode:lr-tb;direction:ltr;text-orientation:mixed;dominant-baseline:auto;baseline-shift:baseline;text-anchor:middle;white-space:normal;shape-padding:0;clip-rule:nonzero;display:inline;overflow:visible;visibility:visible;opacity:1;isolation:auto;mix-blend-mode:normal;color-interpolation:sRGB;color-interpolation-filters:linearRGB;solid-color:#000000;solid-opacity:1;vector-effect:none;fill:#000000;fill-opacity:1;fill-rule:nonzero;stroke:none;stroke-width:0.26458332;stroke-linecap:butt;stroke-linejoin:miter;stroke-miterlimit:4;stroke-dasharray:none;stroke-dashoffset:0;stroke-opacity:1;color-rendering:auto;image-rendering:auto;shape-rendering:auto;text-rendering:auto;enable-background:accumulate" />
    <path
       inkscape:connector-curvature="0"
       d="m 7.2089091,2.4802 q 0.3531305,0 0.6596944,0.10478 0.3065639,0.10477 0.5277556,0.30656 0.2250722,0.19791 0.3531306,0.48507 0.1280583,0.28716 0.1280583,0.65193 0,0.31045 -0.093133,0.57432 Q 8.691282,4.86674 8.5321788,5.11122 8.3730761,5.35181 8.1635261,5.58076 7.9578566,5.80584 7.7250233,6.04255 L 6.2620538,7.54044 q 0.1552222,-0.0427 0.314325,-0.066 0.1591028,-0.0272 0.3065639,-0.0272 h 1.8626667 q 0.1125361,0 0.1785056,0.066 0.065969,0.066 0.065969,0.17075 v 0.4191 H 5.2802729 V 7.86637 q 0,-0.0737 0.027164,-0.15134 0.031045,-0.0776 0.097014,-0.14358 L 7.1856259,5.78251 Q 7.4068176,5.55744 7.5892037,5.35177 7.7715898,5.14222 7.8996482,4.93267 8.0315871,4.72312 8.1014371,4.50969 q 0.06985,-0.21731 0.06985,-0.46179 0,-0.24447 -0.077611,-0.42686 Q 8.0160651,3.43478 7.8802455,3.31448 7.7444261,3.19418 7.5620399,3.13597 7.3796538,3.07387 7.1701038,3.07387 q -0.20955,0 -0.3880555,0.0621 -0.1785056,0.0621 -0.3182056,0.17463 -0.1358195,0.10865 -0.2328333,0.26 -0.093133,0.15134 -0.1319389,0.33372 -0.031045,0.11254 -0.093133,0.16299 -0.062089,0.0504 -0.1629833,0.0504 -0.019403,0 -0.042686,0 -0.019403,-0.004 -0.046567,-0.008 L 5.3928095,4.04761 Q 5.4471375,3.66732 5.6023595,3.37628 5.7575818,3.08136 5.9942957,2.88345 6.2348901,2.68554 6.541454,2.58465 6.8518985,2.47987 7.2089096,2.47987 Z"
       style="font-style:normal;font-weight:normal;font-size:7.76111126px;line-height:1.25;font-family:sans-serif;text-align:center;letter-spacing:0px;word-spacing:0px;text-anchor:middle;fill:#000000;fill-opacity:1;stroke:none;stroke-width:0.26458332"
       id="path985" />
  </g>
</svg>
