<?xml version="1.0" encoding="UTF-8" standalone="no"?>
<svg
   xmlns:dc="http://purl.org/dc/elements/1.1/"
   xmlns:cc="http://creativecommons.org/ns#"
   xmlns:rdf="http://www.w3.org/1999/02/22-rdf-syntax-ns#"
   xmlns:svg="http://www.w3.org/2000/svg"
   xmlns="http://www.w3.org/2000/svg"
   xmlns:sodipodi="http://sodipodi.sourceforge.net/DTD/sodipodi-0.dtd"
   xmlns:inkscape="http://www.inkscape.org/namespaces/inkscape"
   id="svg8"
   version="1.1"
   viewBox="0 0 10.583333 10.583334"
   height="40"
   width="40"
   sodipodi:docname="x3.svg"
   inkscape:version="0.92.4 (fd57863, 2020-04-02)">
  <sodipodi:namedview
     pagecolor="#ffffff"
     bordercolor="#666666"
     borderopacity="1"
     objecttolerance="10"
     gridtolerance="10"
     guidetolerance="10"
     inkscape:pageopacity="0"
     inkscape:pageshadow="2"
     inkscape:window-width="1866"
     inkscape:window-height="1016"
     id="namedview30"
     showgrid="false"
     inkscape:zoom="11.8"
     inkscape:cx="11.093727"
     inkscape:cy="15.884269"
     inkscape:window-x="54"
     inkscape:window-y="27"
     inkscape:window-maximized="1"
     inkscape:current-layer="svg8" />
  <defs
     id="defs2" />
  <metadata
     id="metadata5">
    <rdf:RDF>
      <cc:Work
         rdf:about="">
        <dc:format>image/svg+xml</dc:format>
        <dc:type
           rdf:resource="http://purl.org/dc/dcmitype/StillImage" />
        <dc:title />
      </cc:Work>
    </rdf:RDF>
  </metadata>
  <g
     id="g870">
    <path
       sodipodi:nodetypes="cccccccccccccc"
       inkscape:connector-curvature="0"
       id="path1006"
       d="M 1.9101562,4.3535156 1.421875,4.8476562 2.5175781,5.9414062 1.3867188,7.0722656 1.875,7.5644531 3.0097656,6.4335938 4.1328125,7.5585938 4.6210938,7.0644531 3.4980469,5.9453125 4.5898438,4.8535156 4.4960938,4.7597656 4.0976562,4.3613281 3.0058594,5.453125 Z"
       style="color:#000000;font-style:normal;font-variant:normal;font-weight:normal;font-stretch:normal;font-size:6.3499999px;line-height:1.25;font-family:Lato;-inkscape-font-specification:Lato;font-variant-ligatures:normal;font-variant-position:normal;font-variant-caps:normal;font-variant-numeric:normal;font-variant-alternates:normal;font-feature-settings:normal;text-indent:0;text-align:center;text-decoration:none;text-decoration-line:none;text-decoration-style:solid;text-decoration-color:#000000;letter-spacing:0px;word-spacing:0px;text-transform:none;writing-mode:lr-tb;direction:ltr;text-orientation:mixed;dominant-baseline:auto;baseline-shift:baseline;text-anchor:middle;white-space:normal;shape-padding:0;clip-rule:nonzero;display:inline;overflow:visible;visibility:visible;opacity:1;isolation:auto;mix-blend-mode:normal;color-interpolation:sRGB;color-interpolation-filters:linearRGB;solid-color:#000000;solid-opacity:1;vector-effect:none;fill:#000000;fill-opacity:1;fill-rule:nonzero;stroke:none;stroke-width:0.26458332;stroke-linecap:butt;stroke-linejoin:miter;stroke-miterlimit:4;stroke-dasharray:none;stroke-dashoffset:0;stroke-opacity:1;color-rendering:auto;image-rendering:auto;shape-rendering:auto;text-rendering:auto;enable-background:accumulate" />
    <path
       inkscape:connector-curvature="0"
       d="m 7.263237,2.44923 q 0.353131,0 0.651934,0.1009 0.298802,0.10089 0.512233,0.28716 0.217311,0.18627 0.337608,0.45014 0.120297,0.26388 0.120297,0.58597 0,0.26387 -0.06985,0.47342 Q 8.749489,4.55249 8.621432,4.7116 8.497254,4.86682 8.318748,4.97547 8.140243,5.08413 7.919051,5.1501 8.462329,5.29368 8.733968,5.63129 9.009487,5.9689 9.009487,6.47725 q 0,0.38417 -0.147461,0.69074 Q 8.718446,7.47455 8.466209,7.69186 8.213973,7.90529 7.876365,8.02171 7.542637,8.13425 7.158462,8.13425 6.716079,8.13425 6.401754,8.02559 6.087429,7.91306 5.870118,7.71903 5.652807,7.525 5.513107,7.26112 5.373407,6.99336 5.276393,6.68292 L 5.571315,6.55874 q 0.08149,-0.0349 0.162983,-0.0349 0.07761,0 0.13582,0.0349 0.06209,0.031 0.09313,0.1009 0.0078,0.0155 0.01552,0.0349 0.0078,0.0155 0.01552,0.0349 0.05433,0.11253 0.131938,0.25611 0.07761,0.1397 0.20955,0.26388 0.131939,0.12418 0.325967,0.20955 0.197908,0.0854 0.48895,0.0854 0.291042,0 0.508353,-0.0931 Q 7.880238,7.35428 8.023818,7.20292 8.171279,7.05158 8.24501,6.86532 8.31874,6.67905 8.31874,6.49666 8.31874,6.27159 8.25665,6.08532 8.19844,5.89906 8.039339,5.76324 7.884117,5.62742 7.604717,5.54981 7.329198,5.47221 6.894575,5.47221 V 4.97161 Q 7.247706,4.96761 7.496062,4.89401 7.748298,4.82031 7.9074,4.69222 8.066503,4.56417 8.136353,4.38566 q 0.07373,-0.17851 0.07373,-0.39582 0,-0.24059 -0.07761,-0.4191 Q 8.058743,3.39224 7.926803,3.27582 7.794864,3.1594 7.612478,3.1012 7.433973,3.043 7.224423,3.043 7.014873,3.043 6.836367,3.1051 6.657862,3.1672 6.518162,3.27972 6.382342,3.38838 6.289209,3.5436 q -0.09313,0.15134 -0.1397,0.32985 -0.03104,0.11253 -0.09313,0.16298 -0.06209,0.0505 -0.159102,0.0505 -0.0194,0 -0.04269,0 -0.0194,-0.004 -0.04657,-0.008 L 5.447125,4.01683 Q 5.501455,3.63653 5.656675,3.34549 5.811897,3.05057 6.048611,2.85266 6.289206,2.65475 6.59577,2.55386 6.906214,2.44908 7.263225,2.44908 Z"
       style="font-style:normal;font-weight:normal;font-size:7.76111126px;line-height:1.25;font-family:sans-serif;text-align:center;letter-spacing:0px;word-spacing:0px;text-anchor:middle;fill:#000000;fill-opacity:1;stroke:none;stroke-width:0.26458332"
       id="path1008" />
  </g>
</svg>
